# xmcd
#
# Track frame offsets:
#	150
#	13455
#	31900
#	49530
#	68285
#	91905
#	110298
#	129105
#	147415
#
# Disc length: 2269 seconds
#
# Revision: 1
# Processed by: cddbd v1.5.1PL0 Copyright (c) Steve Scherf et al.
# Submitted via: CDex 1.50Beta5
#
DISCID=6a08db09
DTITLE=富田靖子 - あさき夢みし
DYEAR=1900
DGENRE=Pop
TTITLE0=17の水平線
TTITLE1=風の回転木馬
TTITLE2=なんて素敵にジャパネスク
TTITLE3=哀愁草子
TTITLE4=花景色・花化粧
TTITLE5=月影のスミレ
TTITLE6=永遠の少年たち
TTITLE7=瑠璃色の雨
TTITLE8=硝子の翼
EXTD=
EXTT0=
EXTT1=
EXTT2=
EXTT3=
EXTT4=
EXTT5=
EXTT6=
EXTT7=
EXTT8=
PLAYORDER=
